<svg width="577" height="612" viewBox="0 0 577 612" fill="none" xmlns="http://www.w3.org/2000/svg">
<path opacity="0.39" fill-rule="evenodd" clip-rule="evenodd" d="M335.431 55.5384C403.552 44.8912 487.929 -3.92002 534.108 49.6856C580.608 103.665 504.996 185.538 509.935 258.11C515.75 343.563 607.461 425.623 564.657 498.582C521.87 571.511 417.034 557.747 335.431 555.547C256.638 553.422 177.706 540.135 117.696 486.527C52.7031 428.469 -13.7412 346.032 2.47075 258.11C18.0691 173.516 117.229 146.964 188.278 103.738C234.489 75.6238 282.595 63.7966 335.431 55.5384Z" fill="#73763A"/>
<path fill-rule="evenodd" clip-rule="evenodd" d="M512.67 280.346C509.091 353.355 580.35 426.539 538.803 489.994C491.455 562.307 391.287 626.982 298.477 607.483C207.087 588.283 204.531 476.286 151.442 408.612C115.554 362.863 48.4769 335.479 41.8474 280.346C34.7464 221.29 73.3605 167.602 116.981 122.017C166.036 70.7524 223.153 24.0605 298.477 12.1575C389.089 -2.16137 507.634 -13.9462 560.276 51.9658C612.986 117.963 516.61 199.983 512.67 280.346Z" stroke="#73763A"/>
</svg>
