<svg width="333" height="362" viewBox="0 0 333 362" fill="none" xmlns="http://www.w3.org/2000/svg">
<path fill-rule="evenodd" clip-rule="evenodd" d="M329.399 218.675C321.15 244.139 290.071 255.191 270.035 274.458C247.269 296.351 234.805 326.491 204.144 339.127C165.097 355.219 117.882 371.121 77.5022 353.805C36.8426 336.369 19.5412 292.581 6.81512 254.505C-4.45659 220.781 2.5127 186.859 10.4846 153.293C18.2294 120.684 26.9182 87.9028 52.1077 63.8011C78.8022 38.2594 115.297 23.7541 154.162 15.8201C198.402 6.78896 252.725 -11.6072 288.546 15.5347C325.52 43.5503 306.095 95.6301 314.474 137.289C320.056 165.048 337.981 192.185 329.399 218.675Z" stroke="#73763A"/>
</svg>
