<svg width="891" height="809" viewBox="0 0 891 809" fill="none" xmlns="http://www.w3.org/2000/svg">
<path fill-rule="evenodd" clip-rule="evenodd" d="M590.386 71.8078C647.634 88.2859 700.106 107.713 753.105 136.354C829.694 177.744 938.135 187.14 968.111 275.938C997.646 363.429 947.787 469.807 889.144 539.341C837.073 601.082 750.645 590.466 679.196 618.508C625.328 639.65 578.121 669.892 522.429 683.266C439.846 703.098 332.879 783.765 277.373 715.005C219.49 643.3 334.489 528.236 319.97 432.461C306.119 341.092 184.843 290.949 199.134 198.913C212.883 110.377 304.784 54.9361 382.515 29.6838C452.563 6.9273 520.601 51.7207 590.386 71.8078Z" stroke="#A68358"/>
<path opacity="0.08" fill-rule="evenodd" clip-rule="evenodd" d="M375.624 104.543C445.855 98.6934 521.619 42.912 580.584 81.509C639.191 119.872 629.186 208.48 640.106 277.668C649.236 335.511 652.495 392.154 638.593 449.039C623.668 510.114 602.191 569.815 557.825 614.366C507.859 664.541 445.124 726.679 375.624 713.107C304.728 699.262 299.631 590.846 238.702 552.046C170.343 508.515 52.2694 552.119 12.2006 481.677C-25.7563 414.947 42.1546 335.128 76.1679 266.305C105.361 207.235 136.083 145.022 194.057 113.705C248.711 84.1819 313.719 109.7 375.624 104.543Z" fill="#73763A"/>
</svg>
