<svg width="494" height="538" viewBox="0 0 494 538" fill="none" xmlns="http://www.w3.org/2000/svg">
<path fill-rule="evenodd" clip-rule="evenodd" d="M490.014 324.41C477.723 362.35 431.417 378.817 401.565 407.524C367.645 440.143 349.073 485.05 303.391 503.877C245.213 527.853 174.866 551.546 114.702 525.746C54.1218 499.767 28.3437 434.526 9.38257 377.795C-7.41161 327.548 2.97221 277.006 14.8499 226.996C26.3892 178.409 39.335 129.568 76.8659 93.6575C116.639 55.6018 171.014 33.9898 228.921 22.1686C294.836 8.71274 375.773 -18.6964 429.144 21.7433C484.234 63.4849 455.293 141.081 467.775 203.15C476.093 244.509 502.8 284.942 490.014 324.41Z" stroke="#A68358"/>
</svg>
