<svg width="1368" height="960" viewBox="0 0 1368 960" fill="none" xmlns="http://www.w3.org/2000/svg">
<path opacity="0.39" fill-rule="evenodd" clip-rule="evenodd" d="M569.533 127.446C685.197 110.207 828.463 31.1745 906.87 117.969C985.824 205.37 857.442 337.934 865.827 455.437C875.701 593.797 1031.42 726.664 958.74 844.795C886.091 962.876 708.089 940.591 569.533 937.028C435.749 933.587 301.73 912.074 199.838 825.276C89.4855 731.271 -23.3314 597.795 4.19513 455.437C30.6797 318.468 199.046 275.476 319.681 205.488C398.142 159.967 479.822 140.817 569.533 127.446Z" fill="#F2DFBB"/>
<path fill-rule="evenodd" clip-rule="evenodd" d="M687.804 114.401C837.772 120.81 988.099 -6.78867 1118.44 67.6075C1266.98 152.39 1399.83 331.756 1359.78 497.947C1320.34 661.595 1090.28 666.173 951.275 761.236C857.303 825.5 801.052 945.612 687.804 957.483C566.498 970.198 456.217 901.054 362.581 822.945C257.278 735.104 161.369 632.826 136.919 497.947C107.506 335.692 83.2991 123.42 218.689 29.1568C354.254 -65.2289 522.73 107.347 687.804 114.401Z" stroke="#0D0D0D"/>
</svg>
