<svg width="669" height="598" viewBox="0 0 669 598" fill="none" xmlns="http://www.w3.org/2000/svg">
<path opacity="0.15" fill-rule="evenodd" clip-rule="evenodd" d="M411.03 14.8767C484.943 24.6712 559.433 43.0805 609.261 98.5446C656.902 151.575 660.849 225.57 664.281 296.775C667.969 373.297 679.289 456.995 629.336 515.08C577.094 575.826 490.839 598.313 411.03 591.251C337.088 584.708 283.479 529.151 228.218 479.587C167.945 425.527 96.4397 376.568 82.711 296.775C66.9658 205.263 81.7871 98.4732 152.238 37.983C220.548 -20.668 321.777 3.04939 411.03 14.8767Z" fill="#73763A"/>
<path fill-rule="evenodd" clip-rule="evenodd" d="M287.579 39.9206C357.442 47.697 414.32 86.8377 468.567 131.543C531.394 183.32 609.779 231.573 618.373 312.531C627.451 398.038 579.982 484.433 511.557 536.509C449.323 583.873 365.603 558.931 287.579 564.286C198.719 570.384 94.2306 631.836 30.595 569.515C-33.0274 507.208 24.8739 401.403 30.5114 312.531C35.5219 233.543 6.95324 143.788 61.2531 86.2051C116.173 27.9652 208.02 31.0648 287.579 39.9206Z" stroke="#0D0D0D"/>
</svg>
