<svg width="37" height="37" viewBox="0 0 37 37" fill="none" xmlns="http://www.w3.org/2000/svg">
<g filter="url(#filter0_d_1_4099)">
<path d="M34.1622 1H3.83784C2.82283 1 2 1.82283 2 2.83784V33.1622C2 34.1772 2.82283 35 3.83784 35H34.1622C35.1772 35 36 34.1772 36 33.1622V2.83784C36 1.82283 35.1772 1 34.1622 1Z" stroke="#FEFBF5" stroke-width="1.14583" stroke-linecap="round" stroke-linejoin="round"/>
<path d="M19 1V35M2 18H36M23.3437 10.1212H31.614M24.78 22.3116L30.2935 30.5818M7.2893 22.8905L14.6406 30.1839M14.6048 22.8326L7.2893 30.1555M10.965 5.98605V14.2563M6.82984 10.1212H15.1001" stroke="#FEFBF5" stroke-width="1.14583" stroke-linecap="round" stroke-linejoin="round"/>
</g>
<defs>
<filter id="filter0_d_1_4099" x="0.427124" y="0.427246" width="36.1458" height="36.1455" filterUnits="userSpaceOnUse" color-interpolation-filters="sRGB">
<feFlood flood-opacity="0" result="BackgroundImageFix"/>
<feColorMatrix in="SourceAlpha" type="matrix" values="0 0 0 0 0 0 0 0 0 0 0 0 0 0 0 0 0 0 127 0" result="hardAlpha"/>
<feOffset dx="-1" dy="1"/>
<feComposite in2="hardAlpha" operator="out"/>
<feColorMatrix type="matrix" values="0 0 0 0 0.14902 0 0 0 0 0.145098 0 0 0 0 0.0705882 0 0 0 1 0"/>
<feBlend mode="normal" in2="BackgroundImageFix" result="effect1_dropShadow_1_4099"/>
<feBlend mode="normal" in="SourceGraphic" in2="effect1_dropShadow_1_4099" result="shape"/>
</filter>
</defs>
</svg>
