<svg width="506" height="677" viewBox="0 0 506 677" fill="none" xmlns="http://www.w3.org/2000/svg">
<path d="M96.9495 641.667L88.6219 675.867H504.365L505 665.817L503.335 654.991V646.108L501.669 621.126L500.281 616.962L501.669 612.243L500.281 609.745V604.748L498.893 600.307L497.783 590.869L493.897 581.153L496.117 574.769L492.509 566.997V559.779L490.288 556.171L489.455 552.562L486.679 550.897V544.512V533.131L482.516 518.974L478.907 517.586L477.519 505.928L476.409 500.376C475.668 496.675 474.188 489.106 474.188 488.44C474.188 487.774 470.302 477.614 468.359 472.617L456.7 441.528L451.981 427.094L445.319 407.107L442.821 396.282L440.323 375.74L437.269 363.526L431.717 344.095L423.39 325.497L415.062 310.785L407.29 301.625L396.187 292.742L374.257 281.084L344.833 267.76L342.335 261.375L339.282 257.766L324.014 241.389L316.242 233.339L324.014 221.68L329.011 213.075L333.175 202.527L336.783 178.655C337.338 176 339.652 174.61 340.114 173.5C340.577 172.39 339.929 169.217 337.338 168.106V166.996L340.114 157.558L340.947 151.451V150.063L341.502 147.287L342.335 144.512L343.723 138.682L343.445 130.632V122.305V115.643L344.833 110.646L346.499 104.262L344.833 89.5497L340.392 78.7239L337.616 72.3394L335.673 66.2326L332.62 59.5705L330.676 54.574L328.456 49.2999L324.014 39.5844L319.851 32.3671L317.907 28.4809L310.413 20.9861L301.808 15.4344L293.758 11.5482L281.266 6.55171L276.825 4.33102L265.444 2.11034L252.12 1H242.127H237.685L231.301 2.11034L227.137 3.22068L219.92 4.33102C218.254 4.79367 214.812 5.71895 214.368 5.71895C213.813 5.71895 209.094 7.93963 208.539 8.21722C208.095 8.43929 205.763 8.86492 204.653 9.04998L198.546 12.9362H196.325L191.051 15.9896L184.944 19.5982L179.115 22.9292L174.396 26.8154L166.623 32.3671L161.627 40.9723L156.908 48.7447L149.968 62.6239L148.858 73.4498L146.082 86.2187L144.694 108.981V123.97L146.637 127.857V132.853L147.748 141.458C148.192 151.673 150.709 158.483 151.911 160.612L164.68 180.32C158.24 191.424 164.033 192.719 167.734 191.979L166.901 195.31L168.567 197.53V200.306L169.399 203.915L171.62 205.858V209.467L168.567 212.52L167.734 216.129L157.741 236.948L155.798 242.222L156.908 246.385L154.965 248.051H147.748L141.363 253.048L132.48 256.656L126.929 259.987L109.996 266.094L101.668 269.98L96.3944 274.699L89.7323 280.251L83.903 282.472L79.1841 286.358L72.7996 288.023L65.86 293.02L59.4755 299.127L46.9842 312.173L40.0445 320.778L33.3825 332.992L29.2187 342.708L28.6635 346.039L22.2791 358.252L20.336 365.747V369.078L18.3929 371.299V374.352L17.0049 375.463L15.8946 380.182L10.8981 399.335L7.28945 430.702C7.01186 431.812 5.73496 436.254 2.84807 445.137C-0.0388191 454.019 1.09003 464.568 2.01531 468.731L6.73426 490.383L12.5636 526.747L20.6135 564.498L30.0514 595.588L40.0445 618.905C43.6531 625.289 53.4796 639.113 63.9169 643.333C74.3541 647.552 83.6254 646.941 86.9564 646.108L96.9495 641.667Z" fill="#0D0D0D" stroke="black"/>
</svg>
