<svg width="200" height="171" viewBox="0 0 200 171" fill="none" xmlns="http://www.w3.org/2000/svg">
<path d="M200 77.7501C200.008 69.7907 198.042 61.9534 194.276 54.9402C190.511 47.9269 185.065 41.9566 178.425 37.5638C171.785 33.171 164.159 30.4928 156.23 29.7691C148.3 29.0454 140.315 30.2988 132.989 33.417C125.663 36.5352 119.226 41.4209 114.252 47.6366C109.279 53.8523 105.925 61.204 104.491 69.0333C103.057 76.8626 103.588 84.9252 106.036 92.4992C108.484 100.073 112.773 106.922 118.519 112.432V166.607C118.518 167.239 118.679 167.86 118.986 168.412C119.294 168.963 119.737 169.427 120.274 169.759C120.812 170.091 121.425 170.28 122.056 170.309C122.687 170.337 123.315 170.204 123.88 169.921L151.852 155.935L179.824 169.921C180.339 170.176 180.906 170.309 181.481 170.31C182.464 170.31 183.406 169.92 184.1 169.225C184.795 168.531 185.185 167.589 185.185 166.607V112.432C189.869 107.951 193.597 102.568 196.143 96.6068C198.689 90.6461 200.001 84.2316 200 77.7501ZM111.111 77.7501C111.111 69.6953 113.501 61.8212 117.977 55.1238C122.454 48.4264 128.817 43.2065 136.261 40.124C143.705 37.0415 151.897 36.235 159.8 37.8064C167.703 39.3779 174.962 43.2567 180.66 48.9523C186.358 54.648 190.238 61.9047 191.81 69.8048C193.382 77.705 192.575 85.8937 189.491 93.3354C186.408 100.777 181.186 107.138 174.486 111.613C167.786 116.088 159.91 118.476 151.852 118.476C141.05 118.464 130.695 114.169 123.057 106.534C115.42 98.8994 111.123 88.5477 111.111 77.7501ZM177.778 160.619L153.509 148.484C152.995 148.227 152.427 148.093 151.852 148.093C151.276 148.093 150.709 148.227 150.194 148.484L125.926 160.619V118.273C133.66 123.24 142.659 125.881 151.852 125.881C161.045 125.881 170.044 123.24 177.778 118.273V160.619ZM96.2963 136.988C96.2963 137.97 95.9061 138.912 95.2115 139.606C94.5169 140.301 93.5749 140.691 92.5926 140.691H11.1111C8.16426 140.691 5.33811 139.521 3.25437 137.438C1.17063 135.355 0 132.529 0 129.584V11.1072C0 8.16136 1.17063 5.33621 3.25437 3.25321C5.33811 1.17021 8.16426 0 11.1111 0H174.074C177.021 0 179.847 1.17021 181.931 3.25321C184.015 5.33621 185.185 8.16136 185.185 11.1072C185.185 12.0891 184.795 13.0308 184.1 13.7251C183.406 14.4195 182.464 14.8096 181.481 14.8096C180.499 14.8096 179.557 14.4195 178.863 13.7251C178.168 13.0308 177.778 12.0891 177.778 11.1072C177.778 10.1252 177.388 9.18351 176.693 8.48918C175.998 7.79485 175.056 7.40478 174.074 7.40478H11.1111C10.1288 7.40478 9.18678 7.79485 8.4922 8.48918C7.79762 9.18351 7.40741 10.1252 7.40741 11.1072V129.584C7.40741 130.566 7.79762 131.507 8.4922 132.202C9.18678 132.896 10.1288 133.286 11.1111 133.286H92.5926C93.5749 133.286 94.5169 133.676 95.2115 134.37C95.9061 135.065 96.2963 136.006 96.2963 136.988Z" fill="#3E401A"/>
</svg>
