<svg width="26" height="19" viewBox="0 0 26 19" fill="none" xmlns="http://www.w3.org/2000/svg">
<path d="M23.3333 0.041504C23.922 0.0413177 24.489 0.263645 24.9206 0.663917C25.3523 1.06419 25.6167 1.61282 25.6608 2.19984L25.6667 2.37484V16.3748C25.6669 16.9635 25.4445 17.5305 25.0443 17.9621C24.644 18.3938 24.0953 18.6582 23.5083 18.7023L23.3333 18.7082H4.66667C4.07799 18.7084 3.51101 18.486 3.07936 18.0858C2.64772 17.6855 2.38332 17.1369 2.33917 16.5498L2.33333 16.3748V15.2082H4.66667V16.3748H23.3333V4.0245L15.2367 12.1212C14.9304 12.4274 14.5215 12.6091 14.089 12.6313C13.6565 12.6535 13.2312 12.5146 12.8952 12.2413L12.7622 12.1212L4.66667 4.0245V4.70817H2.33333V2.37484C2.33315 1.78616 2.55547 1.21918 2.95575 0.787531C3.35602 0.355886 3.90465 0.0914879 4.49167 0.0473375L4.66667 0.041504H23.3333ZM7 10.5415C7.30942 10.5415 7.60616 10.6644 7.82496 10.8832C8.04375 11.102 8.16667 11.3988 8.16667 11.7082C8.16667 12.0176 8.04375 12.3143 7.82496 12.5331C7.60616 12.7519 7.30942 12.8748 7 12.8748H1.16667C0.857247 12.8748 0.560501 12.7519 0.341709 12.5331C0.122916 12.3143 0 12.0176 0 11.7082C0 11.3988 0.122916 11.102 0.341709 10.8832C0.560501 10.6644 0.857247 10.5415 1.16667 10.5415H7ZM21.6837 2.37484H6.31633L14 10.0585L21.6837 2.37484ZM5.83333 7.0415C6.13069 7.04183 6.4167 7.1557 6.63293 7.35983C6.84915 7.56396 6.97927 7.84295 6.9967 8.1398C7.01413 8.43665 6.91755 8.72895 6.72669 8.95697C6.53584 9.185 6.26511 9.33155 5.96983 9.36667L5.83333 9.37484H2.33333C2.03597 9.37451 1.74996 9.26064 1.53374 9.05651C1.31751 8.85238 1.18739 8.57339 1.16997 8.27654C1.15254 7.97969 1.24912 7.68739 1.43998 7.45937C1.63083 7.23134 1.90155 7.08479 2.19683 7.04967L2.33333 7.0415H5.83333Z" fill="#73763A"/>
</svg>
