<svg width="23" height="22" viewBox="0 0 23 22" fill="none" xmlns="http://www.w3.org/2000/svg">
<path d="M13.6545 1.52337C13.6842 1.41233 13.7355 1.30822 13.8055 1.217C13.8754 1.12579 13.9627 1.04925 14.0622 0.991756C14.1618 0.934266 14.2716 0.896953 14.3856 0.881948C14.4996 0.866944 14.6154 0.874542 14.7264 0.90431C16.3485 1.32754 17.8285 2.17551 19.0139 3.36091C20.1993 4.54631 21.0473 6.02627 21.4705 7.64837C21.5002 7.7594 21.5078 7.87521 21.4928 7.98917C21.4778 8.10314 21.4405 8.21303 21.383 8.31258C21.3255 8.41212 21.249 8.49936 21.1578 8.56931C21.0666 8.63925 20.9625 8.69055 20.8514 8.72025C20.7775 8.73966 20.7014 8.74959 20.625 8.74978C20.4322 8.74977 20.2448 8.68608 20.0919 8.56859C19.939 8.45111 19.8292 8.28641 19.7795 8.10009C19.4344 6.77591 18.7423 5.56774 17.7747 4.60012C16.807 3.63249 15.5989 2.94042 14.2747 2.59525C14.1636 2.56566 14.0593 2.51446 13.968 2.44456C13.8767 2.37466 13.8 2.28744 13.7424 2.18788C13.6848 2.08833 13.6474 1.9784 13.6323 1.86437C13.6172 1.75035 13.6248 1.63447 13.6545 1.52337ZM13.3997 6.09525C14.908 6.49775 15.877 7.46681 16.2795 8.97509C16.3292 9.16141 16.439 9.32611 16.5919 9.44359C16.7448 9.56108 16.9322 9.62477 17.125 9.62478C17.2014 9.62459 17.2775 9.61466 17.3514 9.59525C17.4625 9.56555 17.5666 9.51425 17.6578 9.44431C17.749 9.37436 17.8255 9.28712 17.883 9.18758C17.9405 9.08803 17.9778 8.97814 17.9928 8.86417C18.0078 8.75021 18.0002 8.6344 17.9705 8.52337C17.4105 6.42775 15.947 4.96431 13.8514 4.40431C13.7404 4.37465 13.6246 4.36715 13.5107 4.38223C13.3967 4.39732 13.2869 4.4347 13.1874 4.49224C13.0879 4.54977 13.0008 4.62634 12.9309 4.71757C12.861 4.80879 12.8097 4.91289 12.7801 5.02392C12.7504 5.13495 12.7429 5.25073 12.758 5.36466C12.7731 5.47859 12.8105 5.58843 12.868 5.68791C12.9255 5.78739 13.0021 5.87457 13.0933 5.94446C13.1846 6.01435 13.2887 6.06559 13.3997 6.09525ZM22.3619 16.5242C22.1669 18.0062 21.439 19.3666 20.3143 20.3513C19.1895 21.3359 17.7448 21.8775 16.25 21.8748C7.56563 21.8748 0.50001 14.8092 0.50001 6.12478C0.49733 4.62994 1.03889 3.18524 2.02353 2.06051C3.00817 0.935775 4.36857 0.207927 5.85063 0.0129037C6.22541 -0.0328578 6.60494 0.0438151 6.93256 0.231477C7.26018 0.419139 7.51832 0.707724 7.66845 1.05415L9.97845 6.21118V6.22431C10.0934 6.48949 10.1409 6.77902 10.1166 7.06702C10.0924 7.35502 9.99719 7.63254 9.83954 7.87478C9.81985 7.90431 9.79907 7.93165 9.7772 7.959L7.50001 10.6584C8.31923 12.3231 10.0605 14.049 11.747 14.8704L14.4092 12.6052C14.4354 12.5833 14.4628 12.5628 14.4913 12.544C14.7333 12.3826 15.0118 12.284 15.3015 12.2573C15.5912 12.2305 15.883 12.2765 16.1505 12.3909L16.1647 12.3974L21.3174 14.7063C21.6644 14.8559 21.9537 15.1138 22.142 15.4415C22.3302 15.7692 22.4074 16.149 22.3619 16.5242ZM20.625 16.3054H20.613L15.4724 14.0031L12.8091 16.2682C12.7832 16.2901 12.7562 16.3105 12.7281 16.3295C12.4763 16.4975 12.1852 16.5973 11.8833 16.6191C11.5813 16.641 11.2789 16.5841 11.0055 16.4542C8.95689 15.4643 6.91485 13.4376 5.92392 11.4109C5.7927 11.1395 5.73382 10.8388 5.75298 10.5379C5.77214 10.2371 5.8687 9.94625 6.03329 9.69368C6.05184 9.66403 6.07269 9.63587 6.09564 9.60947L8.37501 6.90681L6.07814 1.76619C6.0777 1.76182 6.0777 1.75742 6.07814 1.75306C5.01748 1.89142 4.04363 2.41168 3.33896 3.2164C2.63429 4.02113 2.24714 5.05514 2.25001 6.12478C2.25406 9.83657 3.73036 13.3952 6.35499 16.0198C8.97962 18.6444 12.5382 20.1207 16.25 20.1248C17.319 20.1285 18.3527 19.7427 19.1579 19.0395C19.9631 18.3364 20.4846 17.364 20.625 16.3043V16.3054Z" fill="#73763A"/>
</svg>
