<svg width="34" height="34" viewBox="0 0 34 34" fill="none" xmlns="http://www.w3.org/2000/svg">
<path d="M21.2756 1.94759C21.3227 1.76629 21.4397 1.61103 21.601 1.51578C21.7623 1.42053 21.9548 1.39305 22.1363 1.43934C24.6441 2.09252 26.9322 3.40305 28.7646 5.23568C30.5969 7.06831 31.907 9.35667 32.5598 11.8646C32.6061 12.0459 32.5789 12.2381 32.484 12.3994C32.3891 12.5606 32.2343 12.6778 32.0533 12.7253C31.9957 12.7417 31.9361 12.7501 31.8762 12.7501C31.7196 12.7496 31.5675 12.6971 31.4438 12.601C31.3201 12.5049 31.2318 12.3705 31.1926 12.2188C30.6013 9.95571 29.4178 7.89099 27.7639 6.23702C26.1099 4.58305 24.0452 3.39954 21.7821 2.80824C21.6011 2.76075 21.4463 2.64359 21.3514 2.48235C21.2565 2.3211 21.2293 2.12885 21.2756 1.94759ZM20.3654 8.47512C23.0217 9.1888 24.8121 10.9792 25.5258 13.6355C25.5649 13.7872 25.6533 13.9216 25.7769 14.0177C25.9006 14.1139 26.0527 14.1663 26.2093 14.1668C26.2692 14.1668 26.3288 14.1584 26.3864 14.142C26.5676 14.0934 26.7221 13.975 26.816 13.8126C26.91 13.6503 26.9357 13.4573 26.8876 13.276C26.0376 10.0884 23.9036 7.96333 20.7195 7.10622C20.5426 7.072 20.3592 7.10653 20.2068 7.20278C20.0544 7.29903 19.9444 7.44976 19.8993 7.62426C19.8541 7.79877 19.8772 7.98392 19.9638 8.142C20.0504 8.30009 20.194 8.41922 20.3654 8.47512ZM33.9907 25.9574C33.6967 28.1869 32.6009 30.233 30.9081 31.7133C29.2153 33.1936 27.0414 34.0068 24.7926 34.0009C11.1213 34.0009 1.99e-05 22.8796 1.99e-05 9.20828C-0.00463967 6.96044 0.809123 4.78777 2.28931 3.09608C3.7695 1.40439 5.81489 0.309363 8.04345 0.0155354C8.5 -0.0399701 8.96224 0.0541391 9.36075 0.283731C9.75927 0.513322 10.0725 0.866003 10.2535 1.28881L13.9901 9.63683C14.1298 9.96053 14.1867 10.3139 14.1558 10.6651C14.1249 11.0163 14.0071 11.3543 13.813 11.6486C13.7971 11.6716 13.7812 11.6946 13.7635 11.7159L10.0091 16.1803C9.95023 16.2781 9.91648 16.389 9.91092 16.503C9.90536 16.6171 9.92815 16.7307 9.97727 16.8338C11.3657 19.6761 14.3425 22.6299 17.2185 24.0183C17.3223 24.0665 17.4365 24.0883 17.5508 24.0818C17.665 24.0753 17.776 24.0407 17.8737 23.9811L22.2779 20.241L22.3452 20.1896C22.64 19.9949 22.9786 19.8768 23.3304 19.8459C23.6823 19.815 24.0363 19.8722 24.3605 20.0125L32.7227 23.7598C33.1413 23.9419 33.4901 24.2539 33.7175 24.6498C33.9449 25.0456 34.0388 25.5041 33.9854 25.9574H33.9907ZM32.1578 25.0507L23.7921 21.3035C23.6904 21.2609 23.5801 21.2429 23.4702 21.2513C23.3603 21.2596 23.2539 21.2939 23.1598 21.3513L18.7716 25.0915L18.706 25.1411C18.4009 25.3448 18.0483 25.466 17.6824 25.493C17.3165 25.52 16.9499 25.4519 16.6181 25.2951C13.4305 23.7562 10.2588 20.6058 8.71993 17.4554C8.56166 17.1262 8.49089 16.7618 8.51447 16.3973C8.53804 16.0328 8.65516 15.6806 8.85452 15.3745C8.87046 15.3498 8.88816 15.3285 8.90587 15.3055L12.6584 10.8428C12.7147 10.7472 12.7476 10.6396 12.7547 10.5289C12.7618 10.4182 12.7428 10.3073 12.6991 10.2053L8.95546 1.85727C8.90271 1.72786 8.81285 1.61694 8.69721 1.53847C8.58156 1.46001 8.44529 1.41751 8.30554 1.41632C8.27723 1.41456 8.24884 1.41456 8.22054 1.41632C6.33321 1.66639 4.60157 2.59529 3.34937 4.02936C2.09717 5.46342 1.41014 7.30446 1.41674 9.20828C1.41674 22.0969 11.904 32.5842 24.7926 32.5842C26.6964 32.5907 28.5375 31.9037 29.9715 30.6515C31.4056 29.3993 32.3345 27.6677 32.5846 25.7804C32.6009 25.6284 32.5676 25.4752 32.4898 25.3438C32.4119 25.2123 32.2936 25.1095 32.1525 25.0507H32.1578Z" fill="#FEFBF5"/>
</svg>
