<svg width="43" height="42" viewBox="0 0 43 42" fill="none" xmlns="http://www.w3.org/2000/svg">
<path d="M12.5059 0H30.1459C36.8659 0 42.3259 5.46 42.3259 12.18V29.82C42.3259 33.0503 41.0427 36.1484 38.7585 38.4326C36.4743 40.7168 33.3763 42 30.1459 42H12.5059C5.78593 42 0.325928 36.54 0.325928 29.82V12.18C0.325928 8.94966 1.60917 5.85163 3.89337 3.56744C6.17756 1.28325 9.27559 0 12.5059 0ZM12.0859 4.2C10.0809 4.2 8.15798 4.9965 6.7402 6.41427C5.32243 7.83205 4.52593 9.75496 4.52593 11.76V30.24C4.52593 34.419 7.90693 37.8 12.0859 37.8H30.5659C32.571 37.8 34.4939 37.0035 35.9117 35.5857C37.3294 34.168 38.1259 32.245 38.1259 30.24V11.76C38.1259 7.581 34.7449 4.2 30.5659 4.2H12.0859ZM32.3509 7.35C33.0471 7.35 33.7148 7.62656 34.2071 8.11884C34.6994 8.61113 34.9759 9.27881 34.9759 9.975C34.9759 10.6712 34.6994 11.3389 34.2071 11.8312C33.7148 12.3234 33.0471 12.6 32.3509 12.6C31.6547 12.6 30.9871 12.3234 30.4948 11.8312C30.0025 11.3389 29.7259 10.6712 29.7259 9.975C29.7259 9.27881 30.0025 8.61113 30.4948 8.11884C30.9871 7.62656 31.6547 7.35 32.3509 7.35ZM21.3259 10.5C24.1107 10.5 26.7814 11.6062 28.7505 13.5754C30.7197 15.5445 31.8259 18.2152 31.8259 21C31.8259 23.7848 30.7197 26.4555 28.7505 28.4246C26.7814 30.3938 24.1107 31.5 21.3259 31.5C18.5412 31.5 15.8704 30.3938 13.9013 28.4246C11.9322 26.4555 10.8259 23.7848 10.8259 21C10.8259 18.2152 11.9322 15.5445 13.9013 13.5754C15.8704 11.6062 18.5412 10.5 21.3259 10.5ZM21.3259 14.7C19.6551 14.7 18.0526 15.3637 16.8712 16.5452C15.6897 17.7267 15.0259 19.3291 15.0259 21C15.0259 22.6709 15.6897 24.2733 16.8712 25.4548C18.0526 26.6363 19.6551 27.3 21.3259 27.3C22.9968 27.3 24.5992 26.6363 25.7807 25.4548C26.9622 24.2733 27.6259 22.6709 27.6259 21C27.6259 19.3291 26.9622 17.7267 25.7807 16.5452C24.5992 15.3637 22.9968 14.7 21.3259 14.7Z" fill="#73763A"/>
</svg>
